<?xml version="1.0" encoding="utf-8"?>
<!-- Generator: Adobe Illustrator 19.1.0, SVG Export Plug-In . SVG Version: 6.00 Build 0)  -->
<svg version="1.1" id="Layer_1" xmlns="http://www.w3.org/2000/svg" xmlns:xlink="http://www.w3.org/1999/xlink" x="0px" y="0px"
	 viewBox="0 0 412.9 147.2" style="enable-background:new 0 0 412.9 147.2;" xml:space="preserve">
<style type="text/css">
	.st0{fill:#808285;}
	.st1{fill:#A7A9AC;}
	.st2{fill:#A6CE39;}
</style>
<g>
	<g>
		<g>
			<path class="st0" d="M201,101.7c-2.4-1.3-4.5-1.8-6.8-1.8c-4.7,0-8.3,3.6-8.3,8.4c0,4.9,3.5,8.3,8.5,8.3c2.1,0,4.2-0.6,6.8-1.9
				v1.5c-2.2,1.2-4.5,1.8-6.7,1.8c-5.8,0-10.1-4.1-10.1-9.7c0-5.8,4.8-9.8,10-9.8c2.1,0,4.4,0.5,6.7,1.6V101.7z"/>
			<path class="st0" d="M209.4,118c-3.6,0-6.4-2.8-6.4-6.5c0-3.7,2.7-6.5,6.4-6.5c3.6,0,6.3,2.8,6.3,6.5
				C215.7,115.2,213,118,209.4,118z M209.4,106.3c-2.8,0-5,2.2-5,5.2c0,3,2.1,5.2,5,5.2c2.8,0,4.9-2.2,4.9-5.2
				C214.3,108.6,212.2,106.3,209.4,106.3z"/>
			<path class="st0" d="M219.9,107.5L219.9,107.5c1.2-1.8,2.4-2.4,4.2-2.4c2.7,0,4.6,1.8,4.6,5.1v7.6h-1.3v-7.1
				c0-2.8-1.2-4.3-3.4-4.3c-1.8,0-3,0.9-4.1,2.7v8.8h-1.3v-12.5h1.3V107.5z"/>
			<path class="st0" d="M233.5,107.5L233.5,107.5c1.2-1.8,2.4-2.4,4.2-2.4c2.7,0,4.6,1.8,4.6,5.1v7.6H241v-7.1
				c0-2.8-1.2-4.3-3.4-4.3c-1.8,0-3,0.9-4.1,2.7v8.8h-1.3v-12.5h1.3V107.5z"/>
			<path class="st0" d="M246.5,111.1c-0.4,3.2,2.1,5.7,5,5.7c1.7,0,3-0.6,4.6-1.9v1.5c-1.5,1.1-3,1.7-4.8,1.7
				c-3.6,0-6.2-2.8-6.2-6.7c0-3.7,2.4-6.3,5.7-6.3c2.7,0,5.5,1.9,5.5,6H246.5z M254.7,110c-0.5-2.4-1.8-3.6-4-3.6
				c-2.1,0-3.7,1.4-4.1,3.6H254.7z"/>
			<path class="st0" d="M267.8,107.1c-1.4-0.6-2.2-0.8-3.3-0.8c-2.8,0-4.7,2.1-4.7,5.2c0,3.1,1.9,5.1,4.8,5.1c1.1,0,2-0.2,3.4-0.7
				v1.4c-1.4,0.5-2.3,0.6-3.5,0.6c-3.7,0-6.1-2.5-6.1-6.3c0-3.9,2.5-6.7,6.1-6.7c1.1,0,1.9,0.2,3.3,0.6V107.1z"/>
			<path class="st0" d="M273.8,105.3h3.5v1.1h-3.5v7.4c0,2.1,0,2.9,1.9,2.9c0.8,0,1.2-0.1,2.3-0.6v1.3c-0.3,0.1-0.7,0.3-1.1,0.4
				c-0.5,0.1-1,0.2-1.4,0.2c-1.4,0-2.9-0.8-2.9-2.7v-9h-3.4v-1.1h3.4v-3l0.9-1.2h0.4V105.3z"/>
			<path class="st0" d="M281.4,101.1H280v-2.3h1.3V101.1z M281.4,117.8H280v-12.5h1.3V117.8z"/>
			<path class="st0" d="M286.2,107.5L286.2,107.5c1.2-1.8,2.4-2.4,4.2-2.4c2.7,0,4.6,1.8,4.6,5.1v7.6h-1.3v-7.1
				c0-2.8-1.2-4.3-3.4-4.3c-1.8,0-3,0.9-4.1,2.7v8.8h-1.3v-12.5h1.3V107.5z"/>
			<path class="st0" d="M308.1,106.4h-2.8c1.2,1.1,1.7,2.1,1.7,3.3c0,5.6-7.1,3.8-7.1,6.2c0,2.7,8.2-0.6,8.2,4.7
				c0,2.3-2.1,3.6-5.6,3.6c-3.8,0-5.5-1.6-5.5-3.3c0-1.6,1.3-2.7,3.6-3v-0.1c-1.3-0.3-2-0.9-2-1.8c0-1.1,1-1.6,2.5-2v-0.1
				c-2.5-0.7-3.3-2.6-3.3-4.1c0-2.1,1.3-4.5,5.3-4.5h5V106.4z M302.8,118.4c-1.6,0-4.5,0.2-4.5,2.3c0,1.5,1.5,2.3,4.3,2.3
				c2.6,0,4.2-0.9,4.2-2.4C306.8,118.9,305.1,118.4,302.8,118.4z M302.3,106.4c-1.9,0-3.3,1.4-3.3,3.3c0,1.9,1.4,3.4,3.3,3.4
				c1.8,0,3.3-1.5,3.3-3.3C305.7,107.9,304.2,106.4,302.3,106.4z"/>
			<path class="st0" d="M323.2,98.8c4.6,0,6.3,2.4,6.3,4.9c0,2.2-1.2,3.7-3.6,4.6c0.9,0.5,1.6,1.6,2.5,2.9l4.3,6.6H331l-3.3-5.2
				c-2.3-3.6-3-3.9-5.3-3.9h-2.6v9.1h-1.5v-19H323.2z M319.8,107.5h3.1c3.3,0,5-1.4,5-3.7c0-2.1-1.5-3.7-5-3.7h-3.1V107.5z"/>
			<path class="st0" d="M334.4,111.1c-0.4,3.2,2.1,5.7,5,5.7c1.7,0,3-0.6,4.6-1.9v1.5c-1.5,1.1-3,1.7-4.8,1.7
				c-3.6,0-6.2-2.8-6.2-6.7c0-3.7,2.4-6.3,5.7-6.3c2.7,0,5.5,1.9,5.5,6H334.4z M342.7,110c-0.5-2.4-1.8-3.6-4-3.6
				c-2.1,0-3.7,1.4-4.1,3.6H342.7z"/>
			<path class="st0" d="M353.7,107.5c-1.4-0.9-2.3-1.3-3.4-1.3c-1.5,0-2.7,0.9-2.7,2.1c0,3,6.5,1.9,6.5,6.2c0,1.9-1.8,3.5-4.1,3.5
				c-1.3,0-2.5-0.4-3.8-1.1v-1.3c1.6,0.8,2.7,1.1,3.9,1.1c1.5,0,2.6-0.9,2.6-2.2c0-3-6.5-2.1-6.5-6.1c0-1.9,1.8-3.4,4-3.4
				c1.1,0,2.1,0.3,3.3,1.1V107.5z"/>
			<path class="st0" d="M357.4,111.1c-0.4,3.2,2.1,5.7,5,5.7c1.7,0,3-0.6,4.6-1.9v1.5c-1.5,1.1-3,1.7-4.8,1.7
				c-3.6,0-6.2-2.8-6.2-6.7c0-3.7,2.4-6.3,5.7-6.3c2.7,0,5.5,1.9,5.5,6H357.4z M365.6,110c-0.5-2.4-1.8-3.6-4-3.6
				c-2.1,0-3.7,1.4-4.1,3.6H365.6z"/>
			<path class="st0" d="M379.8,116.7l-0.2,0.2c-1.3,0.9-1.8,1.1-2.3,1.1c-0.6,0-0.8-0.3-0.9-1.6c-1.4,1.1-2.6,1.6-3.9,1.6
				c-1.9,0-3.4-1.4-3.4-3.2c0-3.3,3.6-4.4,7.3-4.6v-1.6c0-1.7-0.9-2.6-2.8-2.6c-1.3,0-2.3,0.5-3.8,1.6v-1.4c1.5-0.9,2.7-1.3,4-1.3
				c1.6,0,3.9,0.6,3.9,3.3v7.8c0,0.5,0.1,0.6,0.3,0.6c0.3,0,1.1-0.6,1.8-1.1V116.7z M376.4,111.4c-3.3-0.1-6,1.3-6,3.5
				c0,1.2,1.1,2.1,2.5,2.1c1.2,0,2.2-0.4,3.5-1.6V111.4z"/>
			<path class="st0" d="M389.7,107.8c-1.2-1.1-1.8-1.4-2.5-1.4c-1.2,0-2.6,1.3-4,3.6v7.8h-1.3v-12.5h1.3v3.3h0.1
				c1.5-2.3,3-3.5,4.4-3.5c0.9,0,1.6,0.4,2.9,1.5L389.7,107.8z"/>
			<path class="st0" d="M400.2,107.1c-1.4-0.6-2.2-0.8-3.3-0.8c-2.8,0-4.7,2.1-4.7,5.2c0,3.1,1.9,5.1,4.8,5.1c1.1,0,2-0.2,3.4-0.7
				v1.4c-1.4,0.5-2.3,0.6-3.5,0.6c-3.7,0-6.1-2.5-6.1-6.3c0-3.9,2.5-6.7,6.1-6.7c1.1,0,1.9,0.2,3.3,0.6V107.1z"/>
			<path class="st0" d="M404,107.5L404,107.5c1.2-1.8,2.4-2.4,4.2-2.4c2.7,0,4.6,1.8,4.6,5.1v7.7h-1.3v-7.1c0-2.7-1-4.3-3.4-4.3
				c-1.8,0-3,0.9-4.1,2.7v8.8h-1.3v-19h1.3V107.5z"/>
			<path class="st0" d="M194.7,146.1l-0.2,0.2c-1.3,0.9-1.8,1.1-2.3,1.1c-0.6,0-0.8-0.3-0.9-1.6c-1.4,1.1-2.6,1.6-3.9,1.6
				c-1.9,0-3.4-1.4-3.4-3.2c0-3.3,3.6-4.4,7.3-4.6v-1.6c0-1.7-0.9-2.6-2.8-2.6c-1.3,0-2.3,0.5-3.8,1.6v-1.4c1.5-0.9,2.7-1.3,4-1.3
				c1.6,0,3.9,0.6,3.9,3.3v7.8c0,0.5,0.1,0.6,0.3,0.6c0.3,0,1.1-0.6,1.8-1.1V146.1z M191.3,140.8c-3.3-0.1-6,1.3-6,3.5
				c0,1.2,1.1,2.1,2.5,2.1c1.2,0,2.2-0.4,3.5-1.6V140.8z"/>
			<path class="st0" d="M198,136.8L198,136.8c1.2-1.8,2.4-2.4,4.2-2.4c2.7,0,4.6,1.8,4.6,5.1v7.6h-1.3V140c0-2.8-1.2-4.3-3.4-4.3
				c-1.8,0-3,0.9-4.1,2.7v8.8h-1.3v-12.5h1.3V136.8z"/>
			<path class="st0" d="M221,147.2h-1.3v-1c-1.3,0.9-2.3,1.2-3.7,1.2c-3.6,0-6.3-2.8-6.3-6.5c0-3.7,2.7-6.5,6.3-6.5
				c1.3,0,2.2,0.2,3.7,1v-7.2h1.3V147.2z M219.6,136.9c-1.4-0.9-2.3-1.2-3.6-1.2c-2.9,0-5,2.1-5,5.1c0,3,2.2,5.3,5.2,5.3
				c1.3,0,2.1-0.3,3.4-1.1V136.9z"/>
			<path class="st0" d="M237.5,128.2c4.6,0,6.3,2.4,6.3,4.9c0,2.2-1.2,3.7-3.6,4.6c0.9,0.5,1.6,1.6,2.5,2.9l4.3,6.6h-1.7l-3.3-5.2
				c-2.3-3.6-3-3.9-5.3-3.9h-2.6v9.1h-1.5v-19H237.5z M234.1,136.8h3.1c3.3,0,5-1.4,5-3.7c0-2.1-1.5-3.7-5-3.7h-3.1V136.8z"/>
			<path class="st0" d="M248.7,140.4c-0.4,3.2,2.1,5.7,5,5.7c1.7,0,3-0.6,4.6-1.9v1.5c-1.5,1.1-3,1.7-4.8,1.7
				c-3.6,0-6.2-2.8-6.2-6.7c0-3.7,2.4-6.3,5.7-6.3c2.7,0,5.5,1.9,5.5,6H248.7z M257,139.4c-0.5-2.4-1.8-3.6-4-3.6
				c-2.1,0-3.7,1.4-4.1,3.6H257z"/>
			<path class="st0" d="M268,136.9c-1.4-0.9-2.3-1.3-3.4-1.3c-1.5,0-2.7,0.9-2.7,2.1c0,3,6.5,1.9,6.5,6.2c0,1.9-1.8,3.5-4.1,3.5
				c-1.3,0-2.5-0.4-3.8-1.1V145c1.6,0.8,2.7,1.1,3.9,1.1c1.5,0,2.6-0.9,2.6-2.2c0-3-6.5-2.1-6.5-6.1c0-1.9,1.8-3.4,4-3.4
				c1.1,0,2.1,0.3,3.3,1.1V136.9z"/>
			<path class="st0" d="M271.6,140.4c-0.4,3.2,2.1,5.7,5,5.7c1.7,0,3-0.6,4.6-1.9v1.5c-1.5,1.1-3,1.7-4.8,1.7
				c-3.6,0-6.2-2.8-6.2-6.7c0-3.7,2.4-6.3,5.7-6.3c2.7,0,5.5,1.9,5.5,6H271.6z M279.9,139.4c-0.5-2.4-1.8-3.6-4-3.6
				c-2.1,0-3.7,1.4-4.1,3.6H279.9z"/>
			<path class="st0" d="M294.1,146.1l-0.2,0.2c-1.3,0.9-1.8,1.1-2.3,1.1c-0.6,0-0.8-0.3-0.9-1.6c-1.4,1.1-2.6,1.6-3.9,1.6
				c-1.9,0-3.4-1.4-3.4-3.2c0-3.3,3.6-4.4,7.3-4.6v-1.6c0-1.7-0.9-2.6-2.8-2.6c-1.3,0-2.3,0.5-3.8,1.6v-1.4c1.5-0.9,2.7-1.3,4-1.3
				c1.6,0,3.9,0.6,3.9,3.3v7.8c0,0.5,0.1,0.6,0.3,0.6c0.3,0,1.1-0.6,1.8-1.1V146.1z M290.7,140.8c-3.3-0.1-6,1.3-6,3.5
				c0,1.2,1.1,2.1,2.5,2.1c1.2,0,2.2-0.4,3.5-1.6V140.8z"/>
			<path class="st0" d="M304,137.1c-1.2-1.1-1.8-1.4-2.5-1.4c-1.2,0-2.6,1.3-4,3.6v7.8h-1.3v-12.5h1.3v3.3h0.1
				c1.5-2.3,3-3.5,4.4-3.5c0.9,0,1.6,0.4,2.9,1.5L304,137.1z"/>
			<path class="st0" d="M314.5,136.5c-1.4-0.6-2.2-0.8-3.3-0.8c-2.8,0-4.7,2.1-4.7,5.2c0,3.1,1.9,5.1,4.8,5.1c1.1,0,2-0.2,3.4-0.7
				v1.4c-1.4,0.5-2.3,0.6-3.5,0.6c-3.7,0-6.1-2.5-6.1-6.3c0-3.9,2.5-6.7,6.1-6.7c1.1,0,1.9,0.2,3.3,0.6V136.5z"/>
			<path class="st0" d="M318.3,136.8L318.3,136.8c1.2-1.8,2.4-2.4,4.2-2.4c2.7,0,4.6,1.8,4.6,5.1v7.7h-1.3V140c0-2.7-1-4.3-3.4-4.3
				c-1.8,0-3,0.9-4.1,2.7v8.8H317v-19h1.3V136.8z"/>
			<path class="st0" d="M331.3,140.4c-0.4,3.2,2.1,5.7,5,5.7c1.7,0,3-0.6,4.6-1.9v1.5c-1.5,1.1-3,1.7-4.8,1.7
				c-3.6,0-6.2-2.8-6.2-6.7c0-3.7,2.4-6.3,5.7-6.3c2.7,0,5.5,1.9,5.5,6H331.3z M339.6,139.4c-0.5-2.4-1.8-3.6-4-3.6
				c-2.1,0-3.7,1.4-4.1,3.6H339.6z"/>
			<path class="st0" d="M351.8,137.1c-1.2-1.1-1.8-1.4-2.5-1.4c-1.2,0-2.6,1.3-4,3.6v7.8h-1.3v-12.5h1.3v3.3h0.1
				c1.5-2.3,3-3.5,4.4-3.5c0.9,0,1.6,0.4,2.9,1.5L351.8,137.1z"/>
			<path class="st0" d="M360.8,136.9c-1.4-0.9-2.3-1.3-3.4-1.3c-1.5,0-2.7,0.9-2.7,2.1c0,3,6.5,1.9,6.5,6.2c0,1.9-1.8,3.5-4.1,3.5
				c-1.3,0-2.5-0.4-3.8-1.1V145c1.6,0.8,2.7,1.1,3.9,1.1c1.5,0,2.6-0.9,2.6-2.2c0-3-6.5-2.1-6.5-6.1c0-1.9,1.8-3.4,4-3.4
				c1.1,0,2.1,0.3,3.3,1.1V136.9z"/>
		</g>
	</g>
	<g>
		<path class="st1" d="M31.9,17.2c19.6,0,32,13.9,32,30.5c0,16-12,30.5-32.2,30.5C12.3,78.2,0,63.8,0,47.7
			C0,31.2,12.6,17.2,31.9,17.2z M31.9,70.4c13.3,0,23.2-9.7,23.2-22.7c0-13.1-9.8-22.7-23.2-22.7C18.7,25,8.8,34.6,8.8,47.7
			C8.8,60.7,18.7,70.4,31.9,70.4z"/>
		<path class="st1" d="M88.5,18c12,0,19.5,6.4,19.5,16.6c0,6.9-3.6,12-9.9,14.6c5.4,3.6,8.7,9.1,13.2,16.5c2.5,4.1,4,6.1,8.1,11.8
			h-10.2l-7.8-12.2C93.6,53,90,51.6,85.6,51.6h-3.6v25.8h-8.5V18H88.5z M82.1,43.9h5.5c9.2,0,11.8-4.7,11.7-9.7
			c-0.1-5.6-3.4-9-11.7-9h-5.5V43.9z"/>
		<path class="st1" d="M172.2,31.2c-7.3-4.3-13.6-6.2-20.5-6.2c-13.6,0-23.7,9.7-23.7,22.8c0,13.3,9.8,22.6,24.1,22.6
			c6.7,0,14-2.4,20.7-6.7V73c-5.8,3.1-12.2,5.2-21.5,5.2c-22.3,0-32.1-17.2-32.1-29.6c0-18.1,13.7-31.4,32.6-31.4
			c6.1,0,12.3,1.5,20.4,4.9V31.2z"/>
		<path class="st2" d="M205.1,18h23.1c22,0,31.6,15.7,31.6,29.7c0,15.3-11.9,29.7-31.6,29.7h-23.2V18z M213.7,69.8h13.6
			c19.3,0,23.8-14.7,23.8-22.1c0-11.9-7.6-22.1-24.2-22.1h-13.2V69.8z"/>
		<g>
			<path class="st2" d="M193.2,77.4h-8.5V18h8.5v33.1V77.4z"/>
			<path class="st2" d="M194.6,5.6c0,3.1-2.5,5.6-5.6,5.6c-3.1,0-5.6-2.5-5.6-5.6S185.9,0,189,0C192,0,194.6,2.5,194.6,5.6z"/>
		</g>
	</g>
</g>
</svg>
